<?xml version="1.0" encoding="utf-8"?>
<!-- Generator: Adobe Illustrator 16.0.0, SVG Export Plug-In . SVG Version: 6.00 Build 0)  -->
<!DOCTYPE svg PUBLIC "-//W3C//DTD SVG 1.1//EN" "http://www.w3.org/Graphics/SVG/1.1/DTD/svg11.dtd">
<svg version="1.1" id="Camada_1" xmlns="http://www.w3.org/2000/svg" xmlns:xlink="http://www.w3.org/1999/xlink" x="0px" y="0px"
	 width="87px" height="103px" viewBox="0 0 87 103" enable-background="new 0 0 87 103" xml:space="preserve">
<g>
	<g>
		<path fill-rule="evenodd" clip-rule="evenodd" fill="#272727" d="M43.5,4.112L3.997,43.611L43.5,83.109l39.503-39.499L43.5,4.112z
			 M4.865,43.611L43.5,4.979l38.636,38.632L43.5,82.242L4.865,43.611z M43.5,6.67L6.556,43.611L43.5,80.551l36.944-36.94L43.5,6.67z
			"/>
	</g>
</g>
<path fill="#FFFFFF" d="M36.223,40.169c0.684-0.682,1.025-1.51,1.025-2.488v-2.053h-2.283v2.029c0,0.353-0.123,0.652-0.372,0.898
	s-0.548,0.369-0.896,0.369c-0.35,0-0.646-0.123-0.891-0.369s-0.367-0.546-0.367-0.898V29.61c0-0.352,0.122-0.653,0.367-0.903
	c0.245-0.25,0.542-0.375,0.891-0.375c0.349,0,0.647,0.125,0.896,0.375c0.249,0.25,0.372,0.551,0.372,0.903v1.725h2.283v-1.678
	c0-0.97-0.338-1.798-1.014-2.487c-0.676-0.688-1.498-1.032-2.468-1.032c-0.963,0-1.786,0.342-2.469,1.026
	c-0.683,0.685-1.025,1.515-1.025,2.493v8.023c0,0.971,0.34,1.797,1.019,2.482c0.679,0.684,1.504,1.025,2.475,1.025
	C34.721,41.188,35.541,40.849,36.223,40.169z"/>
<path fill-rule="evenodd" clip-rule="evenodd" fill="#FFFFFF" d="M58.232,27.525l1.129,0.768L28.768,59.697l-1.129-0.768
	L58.232,27.525z"/>
<path fill="#FFFFFF" d="M56.293,56.266h-3.796V43.772h-2.201v14.698h5.997V56.266z"/>
<g>
	<g>
		<path fill="#272727" d="M7.753,95.376l0.916,1.102l1.032-0.801c0.123-0.094,0.342-0.293,0.657-0.598l-0.031,0.9l-0.019,0.824v5.01
			h1.899v-8.658h-1.561L7.753,95.376z M16.559,100.19l1.155-1.047c0.77-0.68,1.308-1.203,1.613-1.57s0.53-0.727,0.676-1.074
			c0.146-0.35,0.218-0.725,0.218-1.123c0-0.459-0.119-0.865-0.356-1.221c-0.238-0.355-0.571-0.631-1.001-0.828
			c-0.43-0.199-0.926-0.297-1.487-0.297c-0.426,0-0.811,0.041-1.155,0.121c-0.344,0.082-0.662,0.197-0.953,0.346
			c-0.291,0.15-0.657,0.408-1.1,0.771l1.032,1.178c0.356-0.283,0.698-0.504,1.026-0.656c0.328-0.154,0.666-0.232,1.014-0.232
			c0.332,0,0.597,0.086,0.795,0.256s0.298,0.428,0.298,0.775c0,0.232-0.045,0.459-0.135,0.676c-0.09,0.217-0.238,0.453-0.442,0.707
			c-0.205,0.256-0.641,0.713-1.309,1.371l-2.255,2.197v1.273h6.28v-1.539h-3.914V100.19z M20.707,94.706h4.43l-3.374,7.107h1.991
			l3.397-7.498v-1.148h-6.445V94.706z M30.999,93.155h-2.82v8.658h2.543c1.589,0,2.805-0.379,3.647-1.137s1.263-1.85,1.263-3.275
			c0-1.338-0.406-2.381-1.217-3.127S32.465,93.155,30.999,93.155z M30.9,100.298h-0.817v-5.639h1.014
			c1.704,0,2.556,0.93,2.556,2.789C33.653,99.349,32.735,100.298,30.9,100.298z M36.99,101.813h5.173v-1.516h-3.269v-2.232h3.042
			V96.56h-3.042v-1.9h3.269v-1.504H36.99V101.813z M46.957,98.308c-0.263,0.908-0.416,1.543-0.461,1.906
			c-0.024-0.156-0.087-0.438-0.188-0.844c-0.101-0.404-0.197-0.758-0.292-1.063l-1.689-5.152h-1.923l3.047,8.658h2.077l2.854-8.09
			h2.677v8.09h0.633v-8.09h2.919v-0.568h-7.951L46.957,98.308z M57.44,101.813h4.909v-0.557h-4.283v-3.713h4.043v-0.557h-4.043
			v-3.275h4.283v-0.557H57.44V101.813z M66.221,93.118l-3.612,8.695h0.694l1.253-3.057h3.649l1.248,3.057h0.706l-3.539-8.695H66.221
			z M67.996,98.212h-3.213l1.26-3.109c0.131-0.307,0.252-0.65,0.362-1.029c0.144,0.434,0.266,0.773,0.368,1.018L67.996,98.212z
			 M78.301,93.155l-3.183,7.615h-0.037l-3.183-7.615h-0.971v8.658h0.603v-6.492c0-0.512-0.017-1.014-0.05-1.504h0.05l3.349,7.996
			h0.399l3.36-7.984h0.05c-0.05,0.49-0.074,0.965-0.074,1.422v6.563h0.633v-8.658H78.301z"/>
	</g>
</g>
</svg>
